# Blender 4.0.1
# www.blender.org
mtllib Alfombra.mtl
g pCube1_Malla
v -1.000000 -0.010000 1.000000
v 1.000000 -0.010000 1.000000
v -1.000000 0.010000 1.000000
v 1.000000 0.010000 1.000000
v -1.000000 0.010000 -1.000000
v 1.000000 0.010000 -1.000000
v -1.000000 -0.010000 -1.000000
v 1.000000 -0.010000 -1.000000
v -0.872000 0.010000 0.872000
v 0.872000 0.010000 0.872000
v 0.872000 0.010000 -0.872000
v -0.872000 0.010000 -0.872000
v -0.703000 0.010000 0.703000
v 0.703000 0.010000 0.703000
v 0.703000 0.010000 -0.703000
v -0.703000 0.010000 -0.703000
v -0.540000 0.010000 0.540000
v 0.540000 0.010000 0.540000
v 0.540000 0.010000 -0.540000
v -0.540000 0.010000 -0.540000
v -0.400000 0.010000 0.400000
v 0.400000 0.010000 0.400000
v 0.400000 0.010000 -0.400000
v -0.400000 0.010000 -0.400000
v -0.400000 0.016939 0.400000
v 0.400000 0.016939 0.400000
v 0.400000 0.016939 -0.400000
v -0.400000 0.016939 -0.400000
v -1.000000 0.016939 1.000000
v 1.000000 0.016939 1.000000
v 0.872000 0.016939 0.872000
v -0.872000 0.016939 0.872000
v 1.000000 0.016939 -1.000000
v 0.872000 0.016939 -0.872000
v -1.000000 0.016939 -1.000000
v -0.872000 0.016939 -0.872000
v -0.703000 0.016939 0.703000
v 0.703000 0.016939 0.703000
v 0.540000 0.016939 0.540000
v -0.540000 0.016939 0.540000
v 0.703000 0.016939 -0.703000
v 0.540000 0.016939 -0.540000
v -0.703000 0.016939 -0.703000
v -0.540000 0.016939 -0.540000
vn -0.0000 -0.0000 1.0000
vn -0.0000 1.0000 -0.0000
vn -0.0000 -0.0000 -1.0000
vn 1.0000 -0.0000 -0.0000
vn -1.0000 -0.0000 -0.0000
vt 0.972219 0.612772
vt 0.737710 0.382577
vt 0.967391 0.383099
vt 0.546585 0.540671
vt 0.500346 0.496667
vt 0.545538 0.495617
vt 0.309183 0.653820
vt 0.074626 0.423703
vt 0.306093 0.418864
vt 0.428874 0.966991
vt 0.659046 0.732468
vt 0.658547 0.962144
vt 0.617810 0.069332
vt 0.387808 0.303983
vt 0.388123 0.074344
vt 0.666831 0.671321
vt 0.651346 0.393129
vt 0.676567 0.374791
vt 0.370305 0.661584
vt 0.648496 0.646102
vt 0.380066 0.365081
vt 0.395527 0.643246
vt 0.398406 0.390306
vt 0.621577 0.420534
vt 0.611819 0.602618
vt 0.607853 0.429812
vt 0.621095 0.616338
vt 0.439011 0.606569
vt 0.425291 0.615845
vt 0.435085 0.433792
vt 0.425808 0.420071
vt 0.590346 0.585639
vt 0.582116 0.456128
vt 0.590849 0.451302
vt 0.455985 0.585095
vt 0.585530 0.576927
vt 0.456575 0.450798
vt 0.464696 0.580281
vt 0.461400 0.459529
vt 0.565454 0.559086
vt 0.560627 0.480803
vt 0.564037 0.476273
vt 0.482610 0.560260
vt 0.561079 0.555791
vt 0.481500 0.477514
vt 0.485915 0.555871
vt 0.486031 0.480926
vt 0.501393 0.541721
vt 0.740776 0.617559
vt 0.424076 0.735541
vt 0.622776 0.300806
vt 0.079525 0.653382
s 1
g off
g pCube1_Tono_Claro
usemtl Tono_Claro
f 2/1/1 3/2/1 1/3/1
f 26/4/2 28/5/2 25/6/2
f 6/7/3 7/8/3 5/9/3
f 8/10/4 4/11/4 2/12/4
f 1/13/5 5/14/5 7/15/5
f 30/16/2 32/17/2 29/18/2
f 33/19/2 31/20/2 30/16/2
f 35/21/2 34/22/2 33/19/2
f 29/18/2 36/23/2 35/21/2
f 38/32/2 40/33/2 37/34/2
f 41/35/2 39/36/2 38/32/2
f 43/37/2 42/38/2 41/35/2
f 37/34/2 44/39/2 43/37/2
f 22/44/1 25/6/1 21/41/1
f 23/46/4 26/4/4 22/44/4
f 24/47/3 27/48/3 23/46/3
f 21/41/5 28/5/5 24/47/5
f 4/49/1 29/18/1 3/2/1
f 9/24/3 31/20/3 10/27/3
f 6/50/4 30/16/4 4/11/4
f 10/27/5 34/22/5 11/29/5
f 5/9/3 33/19/3 6/7/3
f 11/29/1 36/23/1 12/31/1
f 3/51/5 35/21/5 5/14/5
f 12/31/4 32/17/4 9/24/4
f 14/25/1 37/34/1 13/26/1
f 17/42/3 39/36/3 18/40/3
f 15/28/4 38/32/4 14/25/4
f 18/40/5 42/38/5 19/43/5
f 16/30/3 41/35/3 15/28/3
f 19/43/1 44/39/1 20/45/1
f 13/26/5 43/37/5 16/30/5
f 20/45/4 40/33/4 17/42/4
f 2/1/1 4/49/1 3/2/1
f 26/4/2 27/48/2 28/5/2
f 6/7/3 8/52/3 7/8/3
f 8/10/4 6/50/4 4/11/4
f 1/13/5 3/51/5 5/14/5
f 30/16/2 31/20/2 32/17/2
f 33/19/2 34/22/2 31/20/2
f 35/21/2 36/23/2 34/22/2
f 29/18/2 32/17/2 36/23/2
f 38/32/2 39/36/2 40/33/2
f 41/35/2 42/38/2 39/36/2
f 43/37/2 44/39/2 42/38/2
f 37/34/2 40/33/2 44/39/2
f 22/44/1 26/4/1 25/6/1
f 23/46/4 27/48/4 26/4/4
f 24/47/3 28/5/3 27/48/3
f 21/41/5 25/6/5 28/5/5
f 4/49/1 30/16/1 29/18/1
f 9/24/3 32/17/3 31/20/3
f 6/50/4 33/19/4 30/16/4
f 10/27/5 31/20/5 34/22/5
f 5/9/3 35/21/3 33/19/3
f 11/29/1 34/22/1 36/23/1
f 3/51/5 29/18/5 35/21/5
f 12/31/4 36/23/4 32/17/4
f 14/25/1 38/32/1 37/34/1
f 17/42/3 40/33/3 39/36/3
f 15/28/4 41/35/4 38/32/4
f 18/40/5 39/36/5 42/38/5
f 16/30/3 43/37/3 41/35/3
f 19/43/1 42/38/1 44/39/1
f 13/26/5 37/34/5 43/37/5
f 20/45/4 44/39/4 40/33/4
g pCube1_Tono_Clarito
usemtl Tono_Clarito
f 9/24/2 14/25/2 13/26/2
f 10/27/2 15/28/2 14/25/2
f 11/29/2 16/30/2 15/28/2
f 12/31/2 13/26/2 16/30/2
f 18/40/2 21/41/2 17/42/2
f 19/43/2 22/44/2 18/40/2
f 20/45/2 23/46/2 19/43/2
f 17/42/2 24/47/2 20/45/2
f 9/24/2 10/27/2 14/25/2
f 10/27/2 11/29/2 15/28/2
f 11/29/2 12/31/2 16/30/2
f 12/31/2 9/24/2 13/26/2
f 18/40/2 22/44/2 21/41/2
f 19/43/2 23/46/2 22/44/2
f 20/45/2 24/47/2 23/46/2
f 17/42/2 21/41/2 24/47/2
