# Blender 4.0.1
# www.blender.org
mtllib BaseSuelo.mtl
g Base_map_Malla
v 14.431496 -0.072431 41.893814
v 1.761201 -0.072431 41.932831
v 1.283635 -0.072432 40.520470
v -10.471405 -0.072432 40.089527
v -10.288958 -0.072435 18.322329
v -15.110696 -0.072436 13.697813
v -20.703999 -0.072437 7.543560
v -20.671482 -0.072438 -1.501337
v -21.660767 -0.072439 -2.910033
v -21.074032 -0.072439 -7.767560
v -32.295967 -0.072442 -23.340105
v -22.771622 -0.072443 -30.160707
v -24.703037 -0.072443 -32.741615
v -14.006231 -0.072445 -41.465836
v 5.095861 -0.072441 -14.819817
v 3.400052 -0.072440 -13.073164
v 5.272515 -0.072440 -10.131220
v 12.956470 -0.072440 -12.692112
v 17.945042 -0.072438 1.341130
v 11.289955 -0.072438 3.755897
v 11.266881 -0.072437 8.187546
v 13.767915 -0.072437 8.440023
v 14.440419 -0.072434 27.286133
v 11.332593 -0.072434 27.408459
v 11.291607 -0.072433 28.917101
v 14.691144 -0.072433 28.987240
vn -0.0000 1.0000 -0.0000
vt 0.499829 0.063263
vt 0.608707 0.189498
vt 0.608438 0.415017
vt 0.681090 0.489500
vt 0.626819 0.642169
vt 0.543224 0.614308
vt 0.522853 0.646314
vt 0.541302 0.665316
vt 0.333489 0.955201
vt 0.608689 0.463229
vt 0.217117 0.860289
vt 0.642963 0.207241
vt 0.635647 0.412270
vt 0.238129 0.832211
vt 0.134513 0.758009
vt 0.256597 0.588594
vt 0.258726 0.535748
vt 0.271459 0.520423
vt 0.271105 0.422023
vt 0.321473 0.355070
vt 0.373929 0.304759
vt 0.371944 0.067952
vt 0.505024 0.047898
vt 0.642866 0.048323
vt 0.609152 0.205910
vt 0.645690 0.188735
s 1
g off
g Base_map_Grey_ROof
usemtl Grey_ROof
f 3/1/1 25/2/1 21/3/1
f 19/4/1 18/5/1 17/6/1
f 16/7/1 15/8/1 14/9/1
f 20/10/1 19/4/1 17/6/1
f 16/7/1 14/9/1 13/11/1
f 20/10/1 17/6/1 16/7/1
f 23/12/1 22/13/1 21/3/1
f 21/3/1 20/10/1 16/7/1
f 16/7/1 13/11/1 12/14/1
f 12/14/1 11/15/1 10/16/1
f 10/16/1 9/17/1 8/18/1
f 8/18/1 7/19/1 6/20/1
f 5/21/1 4/22/1 3/1/1
f 8/18/1 6/20/1 5/21/1
f 16/7/1 12/14/1 10/16/1
f 10/16/1 8/18/1 5/21/1
f 3/1/1 2/23/1 1/24/1
f 10/16/1 5/21/1 3/1/1
f 21/3/1 16/7/1 10/16/1
f 24/25/1 23/12/1 21/3/1
f 1/24/1 26/26/1 25/2/1
f 25/2/1 24/25/1 21/3/1
f 21/3/1 10/16/1 3/1/1
f 3/1/1 1/24/1 25/2/1
