# Blender 4.0.1
# www.blender.org
mtllib Closet.mtl
g Closet_Malla
v 0.250000 1.991905 -0.463838
v 0.250000 0.064231 -0.463838
v 0.250000 1.991905 0.463838
v 0.250000 0.064231 0.463838
v -0.250000 2.028068 -0.500000
v -0.250000 0.028068 -0.500000
v -0.250000 2.028068 0.500000
v -0.250000 0.028068 0.500000
v 0.250000 2.028068 -0.500000
v 0.250000 0.028068 -0.500000
v 0.250000 2.028068 0.500000
v 0.250000 0.028068 0.500000
v -0.225065 1.991905 -0.463838
v -0.225065 0.064231 -0.463838
v -0.225065 1.991905 0.463838
v -0.225065 0.064231 0.463838
v -0.225065 0.418779 0.485268
v -0.225065 0.451961 0.485268
v -0.225065 0.418779 -0.485268
v -0.225065 0.451961 -0.485268
v 0.246841 0.418779 0.485268
v 0.246841 0.451961 0.485268
v 0.246841 0.418779 -0.485268
v 0.246841 0.451961 -0.485268
v -0.225065 0.816959 0.485268
v -0.225065 0.850141 0.485268
v -0.225065 0.816959 -0.485268
v -0.225065 0.850141 -0.485268
v 0.246841 0.816959 0.485268
v 0.246841 0.850141 0.485268
v 0.246841 0.816959 -0.485268
v 0.246841 0.850141 -0.485268
v -0.225065 1.215140 0.485268
v -0.225065 1.248321 0.485268
v -0.225065 1.215140 -0.485268
v -0.225065 1.248321 -0.485268
v 0.246841 1.215140 0.485268
v 0.246841 1.248321 0.485268
v 0.246841 1.215140 -0.485268
v 0.246841 1.248321 -0.485268
v -0.225065 1.613320 0.485268
v -0.225065 1.646502 0.485268
v -0.225065 1.613320 -0.485268
v -0.225065 1.646502 -0.485268
v 0.246841 1.613320 0.485268
v 0.246841 1.646502 0.485268
v 0.246841 1.613320 -0.485268
v 0.246841 1.646502 -0.485268
v 0.173741 -0.000919 0.477411
v 0.173741 0.030835 0.477411
v 0.173741 -0.000919 0.423816
v 0.173741 0.030835 0.423816
v 0.227336 -0.000919 0.477411
v 0.227336 0.030835 0.477411
v 0.227336 -0.000919 0.423816
v 0.227336 0.030835 0.423816
v -0.173741 -0.000919 0.477411
v -0.173741 0.030835 0.477411
v -0.173741 -0.000919 0.423816
v -0.173741 0.030835 0.423816
v -0.227336 -0.000919 0.477411
v -0.227336 0.030835 0.477411
v -0.227336 -0.000919 0.423816
v -0.227336 0.030835 0.423816
v 0.173741 -0.000919 -0.477411
v 0.173741 0.030835 -0.477411
v 0.173741 -0.000919 -0.423816
v 0.173741 0.030835 -0.423816
v 0.227336 -0.000919 -0.477411
v 0.227336 0.030835 -0.477411
v 0.227336 -0.000919 -0.423816
v 0.227336 0.030835 -0.423816
v -0.173741 -0.000919 -0.477411
v -0.173741 0.030835 -0.477411
v -0.173741 -0.000919 -0.423816
v -0.173741 0.030835 -0.423816
v -0.227336 -0.000919 -0.477411
v -0.227336 0.030835 -0.477411
v -0.227336 -0.000919 -0.423816
v -0.227336 0.030835 -0.423816
vn -0.0000 1.0000 -0.0000
vn -0.0000 -0.0000 1.0000
vn -1.0000 -0.0000 -0.0000
vn -0.0000 -1.0000 -0.0000
vn -0.0000 -0.0000 -1.0000
vn 1.0000 -0.0000 -0.0000
vt 0.001657 0.752676
vt 0.126145 0.503700
vt 0.126145 0.752676
vt 0.250628 0.001651
vt 0.375116 0.499604
vt 0.250628 0.499604
vt 0.378419 0.001651
vt 0.627395 0.499604
vt 0.378419 0.499604
vt 0.013966 0.263840
vt 0.138454 0.014864
vt 0.138454 0.263840
vt 0.001654 0.756926
vt 0.119934 0.987894
vt 0.001654 0.987894
vt 0.630699 0.486083
vt 0.755187 0.984036
vt 0.630699 0.984036
vt 0.010655 0.490600
vt 0.001652 0.001651
vt 0.010655 0.010655
vt 0.241624 0.010655
vt 0.241624 0.490600
vt 0.001652 0.499604
vt 0.630699 0.001652
vt 0.861668 0.481597
vt 0.630699 0.481597
vt 0.758490 0.486083
vt 0.876770 0.966029
vt 0.758490 0.966029
vt 0.998349 0.717052
vt 0.880069 0.486083
vt 0.998349 0.486083
vt 0.983246 0.481602
vt 0.864966 0.001657
vt 0.983246 0.001657
vt 0.986549 0.243292
vt 0.994810 0.001652
vt 0.994810 0.243292
vt 0.129447 0.991960
vt 0.246941 0.750319
vt 0.246941 0.991960
vt 0.250244 0.745340
vt 0.367737 0.503700
vt 0.367737 0.745340
vt 0.153325 0.256501
vt 0.161587 0.014860
vt 0.161587 0.256501
vt 0.491847 0.991956
vt 0.609341 0.750316
vt 0.609341 0.991956
vt 0.371044 0.991956
vt 0.488537 0.750316
vt 0.488537 0.991956
vt 0.211131 0.256501
vt 0.219393 0.014860
vt 0.219393 0.256501
vt 0.371044 0.745339
vt 0.488537 0.503699
vt 0.488537 0.745339
vt 0.250244 0.991956
vt 0.367737 0.750316
vt 0.367737 0.991956
vt 0.164893 0.256504
vt 0.173154 0.014864
vt 0.173154 0.256504
vt 0.491844 0.745344
vt 0.609337 0.503704
vt 0.609337 0.745344
vt 0.129444 0.745341
vt 0.246938 0.503701
vt 0.246938 0.745341
vt 0.059151 0.299050
vt 0.067057 0.285706
vt 0.067057 0.299050
vt 0.042171 0.281434
vt 0.050077 0.268090
vt 0.050077 0.281434
vt 0.221290 0.288040
vt 0.229196 0.274696
vt 0.229196 0.288040
vt 0.025524 0.299050
vt 0.033431 0.285706
vt 0.033431 0.299050
vt 0.201339 0.279232
vt 0.187995 0.265888
vt 0.201339 0.265888
vt 0.061286 0.281434
vt 0.053380 0.268090
vt 0.061286 0.268090
vt 0.072493 0.281434
vt 0.064586 0.268090
vt 0.072493 0.268090
vt 0.195902 0.296848
vt 0.187995 0.283504
vt 0.195902 0.283504
vt 0.083702 0.281434
vt 0.075796 0.268090
vt 0.083702 0.268090
vt 0.025524 0.281434
vt 0.038868 0.268090
vt 0.038868 0.281434
vt 0.094910 0.281434
vt 0.087004 0.268090
vt 0.094910 0.268090
vt 0.106120 0.281434
vt 0.098214 0.268090
vt 0.106120 0.268090
vt 0.117328 0.281434
vt 0.109422 0.268090
vt 0.117328 0.268090
vt 0.078264 0.299050
vt 0.070358 0.285706
vt 0.078264 0.285706
vt 0.217987 0.265888
vt 0.204643 0.279232
vt 0.204643 0.265888
vt 0.120629 0.281434
vt 0.128535 0.268090
vt 0.128535 0.281434
vt 0.036732 0.299050
vt 0.044638 0.285706
vt 0.044638 0.299050
vt 0.047940 0.299050
vt 0.055846 0.285706
vt 0.055846 0.299050
vt 0.199204 0.296848
vt 0.207110 0.283504
vt 0.207110 0.296848
vt 0.222699 0.257080
vt 0.236043 0.270424
vt 0.222699 0.270424
vt 0.001657 0.503700
vt 0.375116 0.001651
vt 0.627395 0.001651
vt 0.013966 0.014864
vt 0.119934 0.756926
vt 0.755187 0.486083
vt 0.861668 0.001652
vt 0.876770 0.486083
vt 0.880069 0.717052
vt 0.864966 0.481602
vt 0.986549 0.001652
vt 0.129447 0.750319
vt 0.250244 0.503700
vt 0.153325 0.014860
vt 0.491847 0.750316
vt 0.371044 0.750316
vt 0.211131 0.014860
vt 0.371044 0.503699
vt 0.250244 0.750316
vt 0.164893 0.014864
vt 0.491844 0.503704
vt 0.129444 0.503701
vt 0.059151 0.285706
vt 0.042171 0.268090
vt 0.221290 0.274696
vt 0.025524 0.285706
vt 0.187995 0.279232
vt 0.053380 0.281434
vt 0.064586 0.281434
vt 0.187995 0.296848
vt 0.075796 0.281434
vt 0.025524 0.268090
vt 0.087004 0.281434
vt 0.098214 0.281434
vt 0.109422 0.281434
vt 0.070358 0.299050
vt 0.217987 0.279232
vt 0.120629 0.268090
vt 0.036732 0.285706
vt 0.047940 0.285706
vt 0.199204 0.283504
vt 0.236043 0.257080
s 1
g off
g Closet_Material.005
usemtl Material.005
f 5/1/1 11/2/1 9/3/1
f 11/4/2 8/5/2 12/6/2
f 7/7/3 6/8/3 8/9/3
f 10/10/4 8/11/4 6/12/4
f 3/13/4 13/14/4 1/15/4
f 5/16/5 10/17/5 6/18/5
f 2/19/6 9/20/6 1/21/6
f 3/22/6 12/6/6 4/23/6
f 1/21/6 11/4/6 3/22/6
f 4/23/6 10/24/6 2/19/6
f 13/25/6 16/26/6 14/27/6
f 1/28/2 14/29/2 2/30/2
f 2/31/1 16/32/1 4/33/1
f 4/34/5 15/35/5 3/36/5
f 24/37/6 21/38/6 23/39/6
f 23/40/4 17/41/4 19/42/4
f 20/43/1 22/44/1 24/45/1
f 32/46/6 29/47/6 31/48/6
f 31/49/4 25/50/4 27/51/4
f 28/52/1 30/53/1 32/54/1
f 40/55/6 37/56/6 39/57/6
f 39/58/4 33/59/4 35/60/4
f 36/61/1 38/62/1 40/63/1
f 48/64/6 45/65/6 47/66/6
f 47/67/4 41/68/4 43/69/4
f 44/70/1 46/71/1 48/72/1
s 0
f 50/73/3 51/74/3 49/75/3
f 52/76/5 55/77/5 51/78/5
f 56/79/6 53/80/6 55/81/6
f 54/82/2 49/83/2 53/84/2
f 55/85/4 49/86/4 51/87/4
f 59/88/6 58/89/6 57/90/6
f 63/91/5 60/92/5 59/93/5
f 61/94/3 64/95/3 63/96/3
f 57/97/2 62/98/2 61/99/2
f 57/100/4 63/101/4 59/102/4
f 67/103/3 66/104/3 65/105/3
f 71/106/2 68/107/2 67/108/2
f 69/109/6 72/110/6 71/111/6
f 65/112/5 70/113/5 69/114/5
f 65/115/4 71/116/4 67/117/4
f 74/118/6 75/119/6 73/120/6
f 76/121/2 79/122/2 75/123/2
f 80/124/3 77/125/3 79/126/3
f 78/127/5 73/128/5 77/129/5
f 79/130/4 73/131/4 75/132/4
s 1
f 5/1/1 7/133/1 11/2/1
f 11/4/2 7/134/2 8/5/2
f 7/7/3 5/135/3 6/8/3
f 10/10/4 12/136/4 8/11/4
f 3/13/4 15/137/4 13/14/4
f 5/16/5 9/138/5 10/17/5
f 2/19/6 10/24/6 9/20/6
f 3/22/6 11/4/6 12/6/6
f 1/21/6 9/20/6 11/4/6
f 4/23/6 12/6/6 10/24/6
f 13/25/6 15/139/6 16/26/6
f 1/28/2 13/140/2 14/29/2
f 2/31/1 14/141/1 16/32/1
f 4/34/5 16/142/5 15/35/5
f 24/37/6 22/143/6 21/38/6
f 23/40/4 21/144/4 17/41/4
f 20/43/1 18/145/1 22/44/1
f 32/46/6 30/146/6 29/47/6
f 31/49/4 29/147/4 25/50/4
f 28/52/1 26/148/1 30/53/1
f 40/55/6 38/149/6 37/56/6
f 39/58/4 37/150/4 33/59/4
f 36/61/1 34/151/1 38/62/1
f 48/64/6 46/152/6 45/65/6
f 47/67/4 45/153/4 41/68/4
f 44/70/1 42/154/1 46/71/1
s 0
f 50/73/3 52/155/3 51/74/3
f 52/76/5 56/156/5 55/77/5
f 56/79/6 54/157/6 53/80/6
f 54/82/2 50/158/2 49/83/2
f 55/85/4 53/159/4 49/86/4
f 59/88/6 60/160/6 58/89/6
f 63/91/5 64/161/5 60/92/5
f 61/94/3 62/162/3 64/95/3
f 57/97/2 58/163/2 62/98/2
f 57/100/4 61/164/4 63/101/4
f 67/103/3 68/165/3 66/104/3
f 71/106/2 72/166/2 68/107/2
f 69/109/6 70/167/6 72/110/6
f 65/112/5 66/168/5 70/113/5
f 65/115/4 69/169/4 71/116/4
f 74/118/6 76/170/6 75/119/6
f 76/121/2 80/171/2 79/122/2
f 80/124/3 78/172/3 77/125/3
f 78/127/5 74/173/5 73/128/5
f 79/130/4 77/174/4 73/131/4
