# Blender 4.0.1
# www.blender.org
mtllib SillonGrande.mtl
g couch1_Malla
v -1.489786 0.266305 0.496436
v 1.489786 0.266305 0.496436
v -1.489786 0.429624 0.496436
v 1.489786 0.429624 0.496436
v -1.489786 0.429624 -0.496436
v 1.489786 0.429624 -0.496436
v -1.489786 0.266305 -0.496436
v 1.489786 0.266305 -0.496436
v 1.484743 0.266305 -0.496436
v 1.654619 0.266305 -0.621436
v 1.484743 0.266305 -0.621436
v -1.484743 0.266305 -0.496436
v -1.654619 0.266305 -0.621436
v -1.484743 0.266305 -0.621436
v -1.484743 1.042623 -0.621437
v 1.484743 1.042623 -0.621437
v -1.484743 1.042623 -0.496437
v 1.484743 1.042623 -0.496437
v 1.484743 0.801961 -0.496437
v 1.484743 0.767990 -0.496437
v 1.501729 0.784976 -0.496437
v 1.637633 0.784976 -0.621437
v 1.654619 0.767990 -0.621437
v 1.472912 0.782909 -0.621437
v 1.472733 0.784976 -0.621437
v 1.484743 0.801961 -0.621437
v 1.501729 0.784976 -0.621437
v 1.484743 0.772965 -0.621437
v -1.484743 0.801961 -0.496437
v -1.501729 0.784976 -0.496437
v -1.484743 0.767990 -0.496437
v -1.472777 0.786014 -0.621437
v -1.472732 0.784976 -0.621437
v -1.484743 0.772965 -0.621437
v -1.501729 0.784976 -0.621437
v -1.484743 0.801961 -0.621437
v -1.654619 0.767990 -0.621437
v -1.637633 0.784976 -0.621437
v 1.498332 0.767990 0.496436
v 1.484743 0.767990 0.482847
v 1.515318 0.784976 0.479450
v 1.501729 0.784976 0.465861
v 1.637633 0.784976 0.465861
v 1.624044 0.784976 0.479450
v 1.654619 0.767990 0.482847
v 1.641030 0.767990 0.496436
v 1.484743 0.266305 0.482847
v 1.498332 0.266305 0.496436
v 1.641030 0.266305 0.496436
v 1.654619 0.266305 0.482847
v -1.484743 0.767990 0.482847
v -1.498332 0.767990 0.496436
v -1.501729 0.784976 0.465861
v -1.515318 0.784976 0.479450
v -1.641029 0.767990 0.496436
v -1.654619 0.767990 0.482847
v -1.637633 0.784976 0.465861
v -1.624043 0.784976 0.479450
v -1.498332 0.266305 0.496436
v -1.484743 0.266305 0.482847
v -1.654619 0.266305 0.482847
v -1.641029 0.266305 0.496436
v 0.499145 0.431483 -0.489935
v 1.479016 0.431483 -0.489935
v 0.499145 0.566115 -0.489935
v 0.532799 0.599769 -0.489935
v 1.445362 0.599769 -0.489935
v 1.479016 0.566115 -0.489935
v 0.521957 0.566115 0.489935
v 0.499145 0.566115 0.467124
v 0.555611 0.599769 0.456281
v 0.532799 0.599769 0.433470
v 1.445362 0.599769 0.433470
v 1.422550 0.599769 0.456281
v 1.479016 0.566115 0.467124
v 1.456204 0.566115 0.489935
v 1.456204 0.431483 0.489935
v 1.479016 0.431483 0.467124
v 0.499145 0.431483 0.467124
v 0.521957 0.431483 0.489935
v -0.482392 0.431483 -0.489935
v 0.497479 0.431483 -0.489935
v -0.482392 0.566115 -0.489935
v -0.448738 0.599769 -0.489935
v 0.463825 0.599769 -0.489935
v 0.497479 0.566115 -0.489935
v -0.459580 0.566115 0.489935
v -0.482392 0.566115 0.467124
v -0.425926 0.599769 0.456281
v -0.448738 0.599769 0.433470
v 0.463825 0.599769 0.433470
v 0.441013 0.599769 0.456281
v 0.497479 0.566115 0.467124
v 0.474667 0.566115 0.489935
v 0.474667 0.431483 0.489935
v 0.497479 0.431483 0.467124
v -0.482392 0.431483 0.467124
v -0.459580 0.431483 0.489935
v -1.508002 0.431483 -0.489935
v -0.486452 0.431483 -0.489935
v -1.508002 0.566115 -0.489935
v -1.474348 0.599769 -0.489935
v -0.520106 0.599769 -0.489935
v -0.486452 0.566115 -0.489935
v -1.484148 0.566115 0.489935
v -1.508002 0.566115 0.466082
v -1.450494 0.599769 0.456281
v -1.474348 0.599769 0.432428
v -0.520106 0.599769 0.432428
v -0.543959 0.599769 0.456281
v -0.486452 0.566115 0.466082
v -0.510305 0.566115 0.489935
v -0.510305 0.431483 0.489935
v -0.486452 0.431483 0.466082
v -1.508002 0.431483 0.466082
v -1.484148 0.431483 0.489935
v -1.474756 1.163442 -0.527495
v -0.487018 1.163442 -0.527495
v -1.474756 0.567155 -0.381361
v -0.487018 0.567155 -0.381361
v -1.474756 1.195488 -0.396732
v -1.474756 0.599202 -0.250598
v -1.441102 0.607212 -0.217911
v -0.487018 1.195488 -0.396732
v -0.520671 0.607212 -0.217911
v -0.487018 0.599202 -0.250598
v -1.441102 1.187157 -0.360040
v -0.520671 1.187157 -0.360040
v -0.482392 1.163442 -0.527495
v 0.497479 1.163442 -0.527495
v -0.482392 0.567155 -0.381361
v 0.497479 0.567155 -0.381361
v -0.482392 1.195488 -0.396732
v -0.482392 0.599202 -0.250598
v -0.448738 0.607212 -0.217911
v 0.497479 1.195488 -0.396732
v 0.463825 0.607212 -0.217911
v 0.497479 0.599202 -0.250598
v -0.448738 1.187157 -0.360040
v 0.463825 1.187157 -0.360040
v 0.499145 1.163442 -0.527495
v 1.479016 1.163442 -0.527495
v 0.499145 0.567155 -0.381361
v 1.479016 0.567155 -0.381361
v 0.499145 1.195488 -0.396732
v 0.499145 0.599202 -0.250598
v 0.532799 0.607212 -0.217911
v 1.479016 1.195488 -0.396732
v 1.445362 0.607212 -0.217911
v 1.479016 0.599202 -0.250598
v 0.532799 1.187157 -0.360040
v 1.445362 1.187157 -0.360040
v 1.326023 0.000000 0.371064
v 1.361000 0.000000 0.371064
v 1.299118 0.266305 0.397969
v 1.387905 0.266305 0.397969
v 1.299118 0.266305 0.309181
v 1.387905 0.266305 0.309181
v 1.326023 0.000000 0.336087
v 1.361000 0.000000 0.336087
v -1.326023 0.000000 0.371064
v -1.361000 0.000000 0.371064
v -1.299118 0.266305 0.397969
v -1.387905 0.266305 0.397969
v -1.299118 0.266305 0.309181
v -1.387905 0.266305 0.309181
v -1.326023 0.000000 0.336087
v -1.361000 0.000000 0.336087
v 1.326023 -0.000000 -0.481936
v 1.361000 -0.000000 -0.481936
v 1.299118 0.266305 -0.508841
v 1.387905 0.266305 -0.508841
v 1.299118 0.266305 -0.420054
v 1.387905 0.266305 -0.420054
v 1.326023 -0.000000 -0.446959
v 1.361000 -0.000000 -0.446959
v -1.326023 -0.000000 -0.481936
v -1.361000 -0.000000 -0.481936
v -1.299118 0.266305 -0.508841
v -1.387905 0.266305 -0.508841
v -1.299118 0.266305 -0.420054
v -1.387905 0.266305 -0.420054
v -1.326023 -0.000000 -0.446959
v -1.361000 -0.000000 -0.446959
vn -0.0000 -0.0000 1.0000
vn -0.0000 1.0000 -0.0000
vn -0.0000 -1.0000 -0.0000
vn -0.0000 -0.0000 -1.0000
vn -1.0000 -0.0000 -0.0000
vn 1.0000 -0.0000 -0.0000
vn 0.7071 0.7071 -0.0000
vn -0.7071 0.7071 -0.0000
vn -0.1104 0.9939 -0.0000
vn -0.1639 0.9865 0.0014
vn -0.1639 0.9865 0.0015
vn 0.2609 0.9654 -0.0000
vn 0.1490 0.9888 0.0015
vn -0.0359 0.8992 0.4361
vn 0.0332 0.8604 0.5085
vn 0.1104 0.9939 -0.0000
vn 0.1639 0.9865 0.0014
vn -0.2609 0.9654 -0.0000
vn 0.1639 0.9865 0.0015
vn -0.1490 0.9888 0.0015
vn 0.0312 0.8784 0.4769
vn 0.0312 0.8784 0.4770
vn -0.0388 0.8815 0.4705
vn -0.0879 0.0207 0.9959
vn -0.9997 0.0208 0.0139
vn -0.0866 -0.0000 0.9962
vn -0.9997 0.0207 0.0139
vn -0.9999 -0.0000 0.0137
vn -0.9997 0.0208 0.0138
vn -0.0879 0.0206 0.9959
vn 0.1640 0.9865 0.0014
vn 0.9997 0.0207 0.0123
vn 0.9997 0.0207 0.0124
vn 0.0876 0.0241 0.9959
vn 0.9999 -0.0000 0.0122
vn 0.9997 0.0208 0.0123
vn 0.0866 -0.0000 0.9962
vn -0.9995 0.0322 0.0001
vn -0.9995 0.0322 -0.0000
vn -0.1490 0.9888 0.0014
vn -0.0880 0.0206 0.9959
vn 0.0311 0.8784 0.4770
vn 0.0877 0.0241 0.9959
vn 0.9995 0.0322 -0.0000
vn 0.9995 0.0323 -0.0000
vn 0.9999 -0.0000 0.0121
vn 0.9997 0.0208 0.0139
vn 0.9999 -0.0000 0.0137
vn 0.0876 0.0240 0.9959
vn 0.0332 0.8605 0.5084
vn 0.9997 0.0208 0.0138
vn -0.9999 -0.0000 0.0122
vn -0.9997 0.0208 0.0123
vn -0.9997 0.0207 0.0123
vn -0.1640 0.9865 0.0014
vn -0.0359 0.8992 0.4360
vn -0.0880 0.0207 0.9959
vn 0.9995 0.0322 0.0001
vn 0.1490 0.9888 0.0014
vn -0.9995 0.0323 -0.0000
vn 0.0355 0.9994 -0.0000
vn -0.0365 0.9993 -0.0000
vn 0.0896 0.9960 0.0015
vn 0.0015 0.9961 0.0886
vn -0.0511 0.9987 0.0009
vn -0.0092 0.8664 0.4992
vn -0.0258 0.1301 0.9912
vn -0.9902 0.1374 0.0249
vn -0.0238 -0.0000 0.9997
vn -0.9997 0.0001 0.0233
vn 0.9902 0.1374 0.0250
vn 0.0256 0.1375 0.9902
vn 0.9997 -0.0000 0.0233
vn 0.0239 -0.0000 0.9997
vn -0.9816 0.1909 -0.0000
vn 0.9816 0.1909 0.0001
vn 0.0356 0.9994 -0.0000
vn -0.0093 0.8664 0.4992
vn -0.0239 -0.0000 0.9997
vn -0.9902 0.1373 0.0249
vn -0.9997 -0.0000 0.0233
vn -0.9902 0.1373 0.0250
vn 0.0895 0.9960 0.0015
vn 0.0016 0.9961 0.0885
vn 0.9902 0.1373 0.0250
vn 0.9902 0.1374 0.0249
vn 0.0015 0.9961 0.0885
vn 0.0255 0.1375 0.9902
vn 0.9902 0.1373 0.0249
vn 0.0238 -0.0000 0.9997
vn -0.0511 0.9987 0.0008
vn -0.9902 0.1374 0.0250
vn 0.0340 0.9994 -0.0000
vn -0.0355 0.9994 -0.0000
vn 0.0840 0.9965 0.0015
vn 0.0015 0.9961 0.0879
vn -0.0009 0.9989 0.0466
vn -0.4978 0.8673 0.0088
vn -0.0259 0.1304 0.9911
vn -0.9901 0.1376 0.0261
vn -0.9997 -0.0000 0.0243
vn 0.9901 0.1376 0.0261
vn 0.9997 -0.0000 0.0243
vn 0.0239 0.0001 0.9997
vn 0.9816 0.1909 -0.0000
vn -0.0000 -0.2380 -0.9713
vn -0.0000 -0.9713 0.2380
vn 0.0419 0.3106 0.9496
vn -0.0417 0.3155 0.9480
vn 0.0352 0.2379 0.9707
vn -0.0352 0.2379 0.9707
vn 0.5461 0.8351 -0.0653
vn 0.9814 0.0457 0.1866
vn 0.5279 0.8249 -0.2022
vn -0.9814 0.0457 0.1866
vn -0.5430 0.8373 -0.0633
vn -0.5279 0.8249 -0.2021
vn 0.5461 0.8352 -0.0652
vn -0.5279 0.8249 -0.2022
vn 0.5279 0.8249 -0.2021
vn -0.0418 0.3156 0.9480
vn -0.5430 0.8374 -0.0633
vn -0.0417 0.3156 0.9480
vn -0.0353 0.2379 0.9706
vn 0.5462 0.8351 -0.0653
vn 0.0353 0.2382 0.9706
vn 0.0422 0.3106 0.9496
vn -0.0421 0.3156 0.9480
vn 0.0356 0.2379 0.9706
vn -0.0356 0.2379 0.9706
vn 0.5492 0.8332 -0.0644
vn 0.5310 0.8230 -0.2017
vn 0.5310 0.8230 -0.2018
vn -0.5460 0.8354 -0.0624
vn -0.5310 0.8231 -0.2017
vn -0.5460 0.8354 -0.0625
vn -0.5310 0.8230 -0.2017
vn -0.5310 0.8230 -0.2018
vn -0.0420 0.3156 0.9480
vn -0.5460 0.8355 -0.0624
vn -0.0421 0.3155 0.9480
vn -0.9814 0.0456 0.1867
vn -0.0355 0.2379 0.9706
vn 0.0422 0.3105 0.9496
vn 0.0355 0.2379 0.9706
vn -0.0000 0.9713 -0.2380
vn -0.0000 -0.1005 0.9949
vn -0.0000 -0.1005 -0.9949
vn 0.9949 -0.1005 -0.0000
vn -0.9949 -0.1005 -0.0000
vt 0.494066 0.194190
vt 0.003906 0.194126
vt 0.494151 0.167325
vt 0.003906 0.167261
vt 0.494151 0.003981
vt 0.003906 0.003906
vt 0.494066 0.357545
vt 0.003906 0.357481
vt 0.796646 0.028951
vt 0.776052 0.517492
vt 0.776073 0.028951
vt 0.627765 0.517492
vt 0.627786 0.028951
vt 0.648348 0.028951
vt 0.886971 0.454369
vt 0.914933 0.454199
vt 0.887812 0.537852
vt 0.890623 0.539726
vt 0.915763 0.536659
vt 0.912995 0.539555
vt 0.693539 0.028951
vt 0.693518 0.517492
vt 0.687927 0.517492
vt 0.648326 0.517492
vt 0.687948 0.028951
vt 0.628191 0.008506
vt 0.588845 0.008080
vt 0.588185 0.028780
vt 0.588973 0.538363
vt 0.588164 0.517662
vt 0.628159 0.537851
vt 0.585544 0.030825
vt 0.886779 0.433754
vt 0.455392 0.549041
vt 0.434947 0.521068
vt 0.455562 0.521089
vt 0.796624 0.517492
vt 0.500039 0.028866
vt 0.585023 0.515618
vt 0.500018 0.517492
vt 0.583340 0.517492
vt 0.538874 0.521196
vt 0.540918 0.523997
vt 0.538022 0.549148
vt 0.540748 0.546358
vt 0.585374 0.030825
vt 0.585363 0.515533
vt 0.583393 0.028951
vt 0.585118 0.538703
vt 0.584394 0.518599
vt 0.584916 0.007825
vt 0.584352 0.027673
vt 0.909534 0.003906
vt 0.909555 0.182967
vt 0.887162 0.003906
vt 0.887162 0.024521
vt 0.887120 0.182967
vt 0.907415 0.185182
vt 0.889271 0.185182
vt 0.585544 0.542622
vt 0.585267 0.003906
vt 0.003906 0.546156
vt 0.003906 0.523794
vt 0.182797 0.546209
vt 0.024521 0.523805
vt 0.182797 0.523794
vt 0.185011 0.544047
vt 0.185011 0.525956
vt 0.188930 0.523326
vt 0.188930 0.520206
vt 0.271560 0.523123
vt 0.271560 0.519961
vt 0.183819 0.522623
vt 0.183989 0.547231
vt 0.188930 0.549744
vt 0.189100 0.546613
vt 0.271560 0.549776
vt 0.271560 0.546613
vt 0.185693 0.519844
vt 0.024521 0.519844
vt 0.003906 0.550106
vt 0.185693 0.550159
vt 0.024521 0.437309
vt 0.185693 0.437299
vt 0.185693 0.632694
vt 0.003906 0.632651
vt 0.913261 0.272412
vt 0.884798 0.272753
vt 0.910333 0.271390
vt 0.887695 0.271560
vt 0.883531 0.189100
vt 0.886662 0.189100
vt 0.886055 0.184160
vt 0.910077 0.189100
vt 0.913197 0.188930
vt 0.910748 0.183819
vt 0.883169 0.185693
vt 0.883212 0.024521
vt 0.800581 0.185693
vt 0.800624 0.024521
vt 0.996094 0.185693
vt 0.913506 0.185693
vt 0.996072 0.003906
vt 0.913485 0.003906
vt 0.273775 0.548839
vt 0.273775 0.520887
vt 0.376043 0.963006
vt 0.225829 0.963016
vt 0.376011 0.811066
vt 0.372199 0.807403
vt 0.225818 0.811013
vt 0.229662 0.807297
vt 0.224253 0.799523
vt 0.219354 0.800737
vt 0.224082 0.777386
vt 0.218769 0.777631
vt 0.382560 0.801067
vt 0.377619 0.799630
vt 0.383337 0.777780
vt 0.377885 0.777535
vt 0.217981 0.805476
vt 0.218002 0.963016
vt 0.383827 0.805529
vt 0.383880 0.962995
vt 0.405986 0.805497
vt 0.406029 0.962974
vt 0.195843 0.963016
vt 0.195833 0.805486
vt 0.919242 0.902836
vt 0.769027 0.902857
vt 0.919199 0.750907
vt 0.915387 0.747244
vt 0.769016 0.750853
vt 0.772860 0.747137
vt 0.767451 0.739364
vt 0.762542 0.740578
vt 0.767281 0.717226
vt 0.761957 0.717471
vt 0.925748 0.740897
vt 0.920807 0.739460
vt 0.926525 0.717610
vt 0.921073 0.717365
vt 0.761168 0.745316
vt 0.761200 0.902857
vt 0.927025 0.745359
vt 0.927079 0.902825
vt 0.949184 0.745338
vt 0.949238 0.902804
vt 0.739042 0.902857
vt 0.739020 0.745327
vt 0.003970 0.911797
vt 0.003906 0.754693
vt 0.155750 0.911755
vt 0.159573 0.907762
vt 0.159605 0.758708
vt 0.155750 0.754725
vt 0.167378 0.753288
vt 0.166058 0.748187
vt 0.189505 0.753075
vt 0.189207 0.747506
vt 0.165834 0.918325
vt 0.167367 0.913182
vt 0.189196 0.919134
vt 0.189452 0.913405
vt 0.161298 0.746909
vt 0.003917 0.746856
vt 0.161298 0.919571
vt 0.003981 0.919634
vt 0.161319 0.941730
vt 0.004002 0.941783
vt 0.003949 0.724697
vt 0.161319 0.724750
vt 0.735034 0.551138
vt 0.735013 0.713641
vt 0.634025 0.551117
vt 0.634004 0.713630
vt 0.889306 0.551159
vt 0.889274 0.713662
vt 0.867147 0.551159
vt 0.861610 0.556686
vt 0.861599 0.708125
vt 0.867126 0.713662
vt 0.763359 0.708104
vt 0.763369 0.556675
vt 0.735013 0.735789
vt 0.634004 0.735778
vt 0.634036 0.528968
vt 0.735045 0.528990
vt 0.757183 0.551138
vt 0.757161 0.713641
vt 0.732277 0.521152
vt 0.634036 0.521142
vt 0.732245 0.743626
vt 0.634004 0.743605
vt 0.453946 0.777512
vt 0.615161 0.777512
vt 0.453957 0.878511
vt 0.615161 0.878500
vt 0.453936 0.623251
vt 0.615150 0.623241
vt 0.453936 0.645389
vt 0.459473 0.650937
vt 0.609613 0.650926
vt 0.615150 0.645389
vt 0.609623 0.749156
vt 0.459483 0.749167
vt 0.637309 0.777502
vt 0.637319 0.878500
vt 0.431808 0.878511
vt 0.431798 0.777523
vt 0.453946 0.755364
vt 0.615161 0.755353
vt 0.423971 0.780291
vt 0.423971 0.878511
vt 0.645135 0.780270
vt 0.645146 0.878500
vt 0.346472 0.743867
vt 0.346494 0.582663
vt 0.447482 0.743878
vt 0.447503 0.582674
vt 0.192211 0.743856
vt 0.192233 0.582642
vt 0.214360 0.743856
vt 0.219897 0.738319
vt 0.219918 0.588179
vt 0.214381 0.582642
vt 0.318159 0.588190
vt 0.318137 0.738330
vt 0.346494 0.560515
vt 0.447503 0.560525
vt 0.447482 0.766037
vt 0.346472 0.766026
vt 0.324335 0.743867
vt 0.324345 0.582663
vt 0.349241 0.773852
vt 0.447482 0.773863
vt 0.349262 0.552678
vt 0.447503 0.552688
vt 0.866552 0.240962
vt 0.872302 0.240962
vt 0.862123 0.285003
vt 0.876732 0.285003
vt 0.847801 0.282085
vt 0.834352 0.276389
vt 0.860909 0.239823
vt 0.855606 0.237576
vt 0.866552 0.235212
vt 0.872302 0.235212
vt 0.850868 0.234317
vt 0.822309 0.268126
vt 0.810772 0.195978
vt 0.815191 0.240020
vt 0.805011 0.195978
vt 0.800581 0.240020
vt 0.829502 0.237113
vt 0.816405 0.194839
vt 0.842961 0.231416
vt 0.821708 0.192592
vt 0.810772 0.190228
vt 0.805011 0.190228
vt 0.826446 0.189334
vt 0.855005 0.223153
vt 0.810761 0.285855
vt 0.815191 0.329896
vt 0.805011 0.285855
vt 0.800581 0.329885
vt 0.829502 0.326989
vt 0.816405 0.284705
vt 0.842951 0.321282
vt 0.821708 0.282469
vt 0.810761 0.280105
vt 0.805011 0.280094
vt 0.826446 0.279210
vt 0.855005 0.313029
vt 0.866531 0.330815
vt 0.872292 0.330815
vt 0.862123 0.374845
vt 0.876732 0.374845
vt 0.847801 0.371949
vt 0.834352 0.366252
vt 0.860898 0.329665
vt 0.855595 0.327429
vt 0.866531 0.325054
vt 0.872292 0.325054
vt 0.850857 0.324170
vt 0.822309 0.357989
s 1
g off
g couch1_Material.005
usemtl Material.005
f 1/1/1 2/2/1 3/3/1
f 3/3/1 2/2/1 4/4/1
f 3/3/2 4/4/2 5/5/2
f 5/5/2 4/4/2 6/6/2
f 7/7/3 8/8/3 1/1/3
f 1/1/3 8/8/3 2/2/3
f 14/9/3 9/10/3 12/11/3
f 16/12/2 15/13/2 17/14/2
f 14/15/4 13/16/4 34/17/4
f 34/17/4 13/16/4 35/18/4
f 13/16/4 37/19/4 35/18/4
f 38/20/4 35/18/4 37/19/4
f 12/11/1 9/10/1 31/21/1
f 9/10/1 20/22/1 31/21/1
f 20/22/1 19/23/1 31/21/1
f 18/24/1 17/14/1 19/23/1
f 31/21/1 19/23/1 29/25/1
f 19/23/1 17/14/1 29/25/1
f 17/26/5 15/13/5 29/27/5
f 29/27/5 15/13/5 36/28/5
f 19/29/6 26/30/6 18/31/6
f 18/31/6 26/30/6 16/12/6
f 16/12/4 32/32/4 15/13/4
f 32/32/4 36/28/4 15/13/4
f 16/12/2 17/14/2 18/24/2
f 14/15/3 12/33/3 13/16/3
f 10/34/3 9/35/3 11/36/3
f 11/37/3 9/10/3 14/9/3
f 14/38/4 24/39/4 11/40/4
f 24/39/4 28/41/4 11/40/4
f 11/36/4 28/42/4 10/34/4
f 28/42/4 27/43/4 10/34/4
f 10/34/4 27/43/4 23/44/4
f 27/43/4 22/45/4 23/44/4
f 33/46/4 32/32/4 25/47/4
f 32/32/4 16/12/4 25/47/4
f 26/30/4 25/47/4 16/12/4
f 25/47/4 24/39/4 33/46/4
f 24/39/4 14/38/4 33/46/4
f 34/48/4 33/46/4 14/38/4
f 19/29/7 21/49/7 26/30/7
f 26/30/7 21/49/7 27/50/7
f 30/51/8 29/27/8 35/52/8
f 35/52/8 29/27/8 36/28/8
f 38/53/9 57/54/10 35/55/2
f 35/55/2 57/54/11 30/56/12
f 30/56/12 57/54/10 53/57/13
f 57/54/10 58/58/14 53/57/13
f 58/58/14 54/59/15 53/57/13
f 19/29/1 20/60/1 21/49/1
f 26/30/4 27/50/4 25/47/4
f 25/47/4 27/50/4 24/39/4
f 24/39/4 27/50/4 28/41/4
f 29/27/1 30/51/1 31/61/1
f 35/52/4 36/28/4 34/48/4
f 36/28/4 32/32/4 34/48/4
f 32/32/4 33/46/4 34/48/4
f 22/62/16 27/63/2 43/64/17
f 27/63/2 21/65/18 43/64/19
f 21/65/18 42/66/20 43/64/17
f 43/64/17 42/66/20 44/67/21
f 44/67/22 42/66/20 41/68/23
f 39/69/24 40/70/25 48/71/26
f 48/71/26 40/70/27 47/72/28
f 40/70/29 39/69/30 42/73/20
f 42/73/20 39/69/30 41/68/23
f 43/74/31 44/67/22 45/75/32
f 45/75/33 44/67/21 46/76/34
f 50/77/35 45/75/36 49/78/37
f 49/78/37 45/75/32 46/76/34
f 40/79/25 42/66/20 20/80/38
f 20/80/39 42/66/40 21/65/18
f 41/68/23 39/69/41 44/67/42
f 44/67/42 39/69/30 46/76/43
f 22/62/16 43/64/19 23/81/44
f 23/81/45 43/64/31 45/82/36
f 9/83/5 47/84/28 20/80/39
f 20/80/39 47/84/28 40/79/29
f 49/78/37 46/76/34 48/71/26
f 48/71/26 46/76/34 39/69/30
f 45/82/32 50/85/46 23/81/45
f 23/81/45 50/85/46 10/86/6
f 13/16/3 12/33/3 61/87/3
f 12/33/3 60/88/3 61/87/3
f 61/87/3 60/88/3 62/89/3
f 60/88/3 59/90/3 62/89/3
f 51/91/47 52/92/34 60/88/48
f 60/88/48 52/92/49 59/90/37
f 52/92/49 51/91/47 54/59/50
f 54/59/15 51/91/51 53/93/13
f 62/89/26 55/94/24 61/87/52
f 61/87/52 55/94/30 56/95/53
f 56/95/54 55/94/30 57/96/55
f 57/96/55 55/94/30 58/58/56
f 52/92/43 54/59/15 55/94/30
f 55/94/57 54/59/15 58/58/14
f 51/97/47 31/98/58 53/57/13
f 53/57/59 31/98/44 30/56/12
f 59/90/37 52/92/34 62/89/26
f 62/89/26 52/92/34 55/94/30
f 51/97/51 60/99/48 31/98/44
f 31/98/44 60/99/48 12/100/6
f 61/101/52 56/102/54 13/103/5
f 13/103/5 56/102/54 37/104/60
f 56/102/54 57/54/55 37/104/39
f 37/104/39 57/54/11 38/53/9
f 10/34/3 50/105/3 9/35/3
f 9/35/3 50/105/3 47/106/3
f 50/105/3 49/78/3 47/106/3
f 49/78/3 48/71/3 47/106/3
f 67/107/61 66/108/62 73/109/63
f 73/109/63 66/108/62 74/110/64
f 66/108/62 72/111/65 74/110/64
f 72/111/65 71/112/66 74/110/64
f 69/113/67 70/114/68 80/115/69
f 80/115/69 70/114/68 79/116/70
f 70/114/68 69/113/67 72/111/65
f 72/111/65 69/113/67 71/112/66
f 73/109/63 74/110/64 75/117/71
f 75/117/71 74/110/64 76/118/72
f 75/117/71 76/118/72 78/119/73
f 78/119/73 76/118/72 77/120/74
f 70/121/68 72/111/65 65/122/75
f 65/122/75 72/111/65 66/108/62
f 71/112/66 69/113/67 74/110/64
f 74/110/64 69/113/67 76/118/72
f 75/123/71 68/124/76 73/109/63
f 73/109/63 68/124/76 67/107/61
f 69/113/67 80/115/69 76/118/72
f 76/118/72 80/115/69 77/120/74
f 75/123/71 78/125/73 68/124/76
f 68/124/76 78/125/73 64/126/6
f 63/127/5 79/128/70 65/122/75
f 65/122/75 79/128/70 70/121/68
f 85/129/77 84/130/62 91/131/63
f 91/131/63 84/130/62 92/132/64
f 84/130/62 90/133/65 92/132/64
f 90/133/65 89/134/78 92/132/64
f 87/135/67 88/136/68 98/137/69
f 98/137/79 88/136/80 97/138/81
f 88/136/82 87/135/67 90/133/65
f 90/133/65 87/135/67 89/134/78
f 91/131/83 92/132/84 93/139/85
f 93/139/86 92/132/87 94/140/88
f 93/139/89 94/140/88 96/141/73
f 96/141/73 94/140/88 95/142/90
f 88/143/82 90/133/91 83/144/8
f 83/144/8 90/133/91 84/130/62
f 89/134/78 87/135/67 92/132/84
f 92/132/87 87/135/67 94/140/88
f 93/145/85 86/146/7 91/131/63
f 91/131/63 86/146/7 85/129/61
f 87/135/67 98/137/69 94/140/88
f 94/140/88 98/137/69 95/142/90
f 93/145/71 96/147/73 86/146/6
f 86/146/6 96/147/73 82/148/6
f 81/149/5 97/150/81 83/144/5
f 83/144/5 97/150/81 88/143/92
f 103/151/93 102/152/94 109/153/95
f 109/153/95 102/152/94 110/154/96
f 110/154/96 102/152/94 107/155/97
f 108/156/98 107/155/97 102/152/94
f 105/157/99 106/158/100 116/159/79
f 116/159/79 106/158/100 115/160/101
f 106/158/100 105/157/99 108/156/98
f 108/156/98 105/157/99 107/155/97
f 109/153/95 110/154/96 111/161/102
f 111/161/102 110/154/96 112/162/72
f 111/161/102 112/162/72 114/163/103
f 114/163/103 112/162/72 113/164/104
f 106/165/100 108/156/98 101/166/75
f 101/166/75 108/156/98 102/152/94
f 107/155/97 105/157/99 110/154/96
f 110/154/96 105/157/99 112/162/72
f 111/167/102 104/168/105 109/153/95
f 109/153/95 104/168/105 103/151/93
f 105/157/99 116/159/79 112/162/72
f 112/162/72 116/159/79 113/164/104
f 111/167/102 114/169/103 104/168/105
f 104/168/105 114/169/103 100/170/6
f 99/171/5 115/172/101 101/166/75
f 101/166/75 115/172/101 106/165/100
f 117/173/106 118/174/106 119/175/106
f 119/175/106 118/174/106 120/176/106
f 119/177/107 120/178/107 122/179/107
f 122/179/107 120/178/107 123/180/107
f 123/180/107 120/178/107 125/181/107
f 120/178/107 126/182/107 125/181/107
f 128/183/108 127/184/109 125/181/110
f 125/181/110 127/184/109 123/180/111
f 124/185/112 126/186/113 118/174/114
f 118/174/114 126/186/113 120/176/6
f 122/187/115 121/188/116 119/175/5
f 119/175/5 121/188/116 117/173/117
f 121/189/116 124/190/118 117/173/119
f 117/173/117 124/190/118 118/174/120
f 128/183/108 124/190/118 127/184/121
f 127/184/121 124/190/118 121/189/116
f 121/188/122 122/187/115 127/191/123
f 127/191/123 122/187/115 123/192/124
f 124/185/125 128/193/108 126/186/113
f 126/186/113 128/193/108 125/194/126
f 129/195/106 130/196/106 131/197/106
f 131/197/106 130/196/106 132/198/106
f 131/199/107 132/200/107 134/201/107
f 134/201/107 132/200/107 135/202/107
f 135/202/107 132/200/107 137/203/107
f 132/200/107 138/204/107 137/203/107
f 140/205/127 139/206/128 137/203/129
f 137/203/129 139/206/128 135/202/130
f 136/207/131 138/208/113 130/196/132
f 130/196/133 138/208/113 132/198/6
f 134/209/115 133/210/134 131/197/5
f 131/197/5 133/210/134 129/195/135
f 133/211/136 136/212/131 129/195/137
f 129/195/138 136/212/131 130/196/132
f 140/205/127 136/212/131 139/206/128
f 139/206/139 136/212/131 133/211/134
f 133/210/140 134/209/115 139/213/141
f 139/213/128 134/209/142 135/214/143
f 136/207/131 140/215/127 138/208/113
f 138/208/113 140/215/144 137/216/145
f 141/217/106 142/218/106 143/219/106
f 143/219/106 142/218/106 144/220/106
f 143/221/107 144/222/107 146/223/107
f 146/223/107 144/222/107 147/224/107
f 147/224/107 144/222/107 149/225/107
f 144/222/107 150/226/107 149/225/107
f 152/227/127 151/228/128 149/225/129
f 149/225/129 151/228/128 147/224/130
f 148/229/131 150/230/113 142/218/6
f 142/218/6 150/230/113 144/220/6
f 146/231/115 145/232/134 143/219/5
f 143/219/5 145/232/134 141/217/5
f 145/233/136 148/234/131 141/217/146
f 141/217/146 148/234/131 142/218/146
f 152/227/127 148/234/131 151/228/128
f 151/228/139 148/234/131 145/233/134
f 145/232/140 146/231/115 151/235/141
f 151/235/128 146/231/142 147/236/143
f 148/229/131 152/237/127 150/230/113
f 150/230/113 152/237/144 149/238/145
f 153/239/147 154/240/147 155/241/147
f 155/241/147 154/240/147 156/242/147
f 157/243/148 158/244/148 159/245/148
f 159/245/148 158/244/148 160/246/148
f 159/247/3 160/248/3 153/239/3
f 153/239/3 160/248/3 154/240/3
f 154/249/149 160/246/149 156/250/149
f 156/250/149 160/246/149 158/244/149
f 159/245/150 153/239/150 157/243/150
f 157/243/150 153/239/150 155/241/150
f 161/251/147 163/252/147 162/253/147
f 162/253/147 163/252/147 164/254/147
f 165/255/148 167/256/148 166/257/148
f 166/257/148 167/256/148 168/258/148
f 167/259/3 161/251/3 168/260/3
f 168/260/3 161/251/3 162/253/3
f 162/261/150 164/262/150 168/258/150
f 168/258/150 164/262/150 166/257/150
f 167/256/149 165/255/149 161/251/149
f 161/251/149 165/255/149 163/252/149
f 169/263/148 171/264/148 170/265/148
f 170/265/148 171/264/148 172/266/148
f 173/267/147 175/268/147 174/269/147
f 174/269/147 175/268/147 176/270/147
f 175/271/3 169/263/3 176/272/3
f 176/272/3 169/263/3 170/265/3
f 170/273/149 172/274/149 176/270/149
f 176/270/149 172/274/149 174/269/149
f 175/268/150 173/267/150 169/263/150
f 169/263/150 173/267/150 171/264/150
f 177/275/148 178/276/148 179/277/148
f 179/277/148 178/276/148 180/278/148
f 181/279/147 182/280/147 183/281/147
f 183/281/147 182/280/147 184/282/147
f 183/283/3 184/284/3 177/275/3
f 177/275/3 184/284/3 178/276/3
f 178/285/150 184/282/150 180/286/150
f 180/286/150 184/282/150 182/280/150
f 183/281/149 177/275/149 181/279/149
f 181/279/149 177/275/149 179/277/149
